<?xml version="1.0" encoding="utf-8"?>
<!-- Generator: Adobe Illustrator 27.0.0, SVG Export Plug-In . SVG Version: 6.00 Build 0)  -->
<svg version="1.1" id="Layer_1" xmlns="http://www.w3.org/2000/svg" xmlns:xlink="http://www.w3.org/1999/xlink" x="0px" y="0px"
	 viewBox="0 0 224.6 224.6" style="enable-background:new 0 0 224.6 224.6;" xml:space="preserve">
<style type="text/css">
	.st0{fill:#F96A5A;}
	.st1{fill:#202B37;}
</style>
<g>
	<g>
		<path class="st0" d="M112.3,0C50.3,0,0,50.3,0,112.3s50.3,112.3,112.3,112.3s112.3-50.3,112.3-112.3S174.3,0,112.3,0z
			 M112.3,199.4c-48.7,0-88.2-39.5-88.2-88.2c0-48.7,39.5-88.2,88.2-88.2c48.7,0,88.2,39.5,88.2,88.2
			C200.5,160,161,199.4,112.3,199.4z"/>
	</g>
	<g>
		<g>
			<path class="st1" d="M112.3,23.1c-48.7,0-88.2,39.5-88.2,88.2c0,48.7,39.5,88.2,88.2,88.2c48.7,0,88.2-39.5,88.2-88.2
				C200.5,62.6,161,23.1,112.3,23.1z M179.3,113.7c-1.2,17-15.1,30.8-32.1,31.8c-5,0.3-9.7-0.5-14.1-2.1
				c-13.6-5.1-28.6-4.5-42.4,0.3c-3.5,1.2-7.3,1.9-11.2,1.9c-18.7,0-33.9-15-34.2-33.6C44.9,92.7,61,77,80.2,77h64.9
				C164.8,77,180.6,93.7,179.3,113.7z"/>
			<path class="st1" d="M218.8,64.3c-5-5.3-12.1-7.4-18.8-6.3l2-1c15.4-7.7,21.6-26.4,13.9-41.8l-13.2,6.6
				c-15.4,7.7-21.6,26.4-13.9,41.8l0,0l4.1,4.3c8,8.5,21.4,8.8,29.9,0.8L218.8,64.3z"/>
		</g>
		<g>
			<g>
				<path class="st1" d="M65.8,107.2c-2.7,6.4,0.2,13.8,6.7,16.6c6.4,2.7,13.8-0.2,16.6-6.7C89.2,116.7,66,106.8,65.8,107.2z"/>
				<path class="st1" d="M158.8,107.2c2.7,6.4-0.2,13.8-6.7,16.6c-6.4,2.7-13.8-0.2-16.6-6.7C135.4,116.7,158.6,106.8,158.8,107.2z"
					/>
			</g>
			<g>
				<path class="st1" d="M135.6,106.5l22.2-18.6c1.1-0.9,2.8-0.6,3.5,0.6l3.2,5.6c0.7,1.1,0.2,2.6-0.9,3.2l-25.4,13
					C135.6,111.5,133.5,108.2,135.6,106.5z"/>
				<path class="st1" d="M89,106.5L66.8,87.9c-1.1-0.9-2.8-0.6-3.5,0.6l-3.2,5.6c-0.7,1.1-0.2,2.6,0.9,3.2l25.4,13
					C89,111.5,91.1,108.2,89,106.5z"/>
			</g>
		</g>
	</g>
</g>
</svg>
